<svg xmlns="http://www.w3.org/2000/svg" width="43.705" height="86.606" viewBox="0 0 43.705 86.606">
  <g id="Groupe_20" data-name="Groupe 20" transform="translate(-180.251 -221.658)">
    <path id="Tracé_29" data-name="Tracé 29" d="M13524.58,10668.974c.029.382.848,3.4.848,3.4l-6.449,1.608-1.065-3.561s-6.511-1.951-6.728-2.548-2.035-7.47-2.035-7.47l8.763-3.238,8.843-1.644,2.037,7.188a2.347,2.347,0,0,1-.455,1.463C13527.825,10664.838,13524.551,10668.593,13524.58,10668.974Z" transform="translate(-13327.999 -10433)" fill="#dea42b" stroke="#413f3f" stroke-width="1.5"/>
    <path id="Tracé_30" data-name="Tracé 30" d="M13515.6,10668.479l13.117-3.595.617,2.444s-2.3,3.893-2.809,3.921-5.9,1.987-6.506,1.633-3.981-2.093-4.091-2.567S13515.6,10668.479,13515.6,10668.479Z" transform="translate(-13330.869 -10437.165)" fill="#dea42b" stroke="#413f3f" stroke-width="1.5"/>
    <path id="Tracé_31" data-name="Tracé 31" d="M13527.388,10687.516l8.382,29.912,5.793-1.494-8.652-29.984Z" transform="translate(-13336.112 -10446.536)" fill="#dea42b" stroke="#413f3f" stroke-width="1.5"/>
    <path id="Tracé_33" data-name="Tracé 33" d="M13544.219,10749.918s6.379-1.006,7.592-1.006,3.036-.6,4.248,5.049,3.111,11.988,3.111,11.988a4.843,4.843,0,0,1-.467,4.5c-1.49,2.452-9.506,11.488-9.506,11.488s-11.867-3.848-12.354-4.105a10.076,10.076,0,0,1-5.154-6.3c-1.206-4.364-3.768-13.117-3.683-13.828s-.343-1.937,1.447-2.491,7.719-3.477,7.719-3.477Z" transform="translate(-13336.387 -10474.536)" fill="#dea42b" stroke="#413f3f" stroke-width="1.5"/>
    <path id="Tracé_32" data-name="Tracé 32" d="M13541.4,10741.32l6.934-1.66s1.619,5.439,1.8,6.845-.236,12.418-.236,12.418-5.9-8.884-6.148-9.907S13541.4,10741.32,13541.4,10741.32Z" transform="translate(-13342.344 -10470.429)" fill="#dea42b" stroke="#413f3f" stroke-width="1.5"/>
    <g id="Ellipse_40" data-name="Ellipse 40" transform="translate(202.163 271.64)" fill="#dea42b" stroke="#413f3f" stroke-width="1.5">
      <circle cx="1.11" cy="1.11" r="1.11" stroke="none"/>
      <circle cx="1.11" cy="1.11" r="0.36" fill="none"/>
    </g>
  </g>
</svg>
