<svg xmlns="http://www.w3.org/2000/svg" width="39.288" height="59.972" viewBox="0 0 39.288 59.972">
  <g id="Groupe_5" data-name="Groupe 5" transform="translate(1.045 0.999)">
    <path id="Tracé_7" data-name="Tracé 7" d="M13432.78,10633.111a21.33,21.33,0,0,0,4.6-8.142c.506-1.8,2.837-6.9,3.432-9.62s1.748-8.907,1.87-9.918.795-3.316-.611-5.631-2.326-6.643-2.877-7.917-3-5.521-3-5.521a7.189,7.189,0,0,0-4.661-3.59c-3.61-1.076-6.043-2.669-9.583-2.579s-5.575-.257-10.412,4.34-1.96,13.214-1.96,13.214a24.946,24.946,0,0,1,1.26,4.8,10.817,10.817,0,0,1-1.817,5.493c-1.019,1.553-4.022,7.457-3.211,13.39s3.052,10.374,6.9,13.214,8.72,3.834,11.389,3.3A18.066,18.066,0,0,0,13432.78,10633.111Z" transform="translate(-13405.668 -10580.189)" fill="#dea42b" stroke="#484747" stroke-width="2"/>
    <g id="Ellipse_32" data-name="Ellipse 32" transform="translate(1.48 34.575) rotate(11)" fill="#dea42b" stroke="#484747" stroke-width="2">
      <ellipse cx="1.456" cy="2.548" rx="1.456" ry="2.548" stroke="none"/>
      <ellipse cx="1.456" cy="2.548" rx="0.456" ry="1.548" fill="none"/>
    </g>
    <g id="Ellipse_33" data-name="Ellipse 33" transform="translate(9.748 39.15) rotate(1)" fill="#dea42b" stroke="#484747" stroke-width="2">
      <ellipse cx="1.456" cy="2.548" rx="1.456" ry="2.548" stroke="none"/>
      <ellipse cx="1.456" cy="2.548" rx="0.456" ry="1.548" fill="none"/>
    </g>
    <g id="Ellipse_34" data-name="Ellipse 34" transform="translate(22.361 27.173) rotate(21)" fill="#dea42b" stroke="#484747" stroke-width="2">
      <ellipse cx="1.456" cy="2.548" rx="1.456" ry="2.548" stroke="none"/>
      <ellipse cx="1.456" cy="2.548" rx="0.456" ry="1.548" fill="none"/>
    </g>
    <g id="Ellipse_35" data-name="Ellipse 35" transform="translate(27.689 20.014) rotate(11)" fill="#dea42b" stroke="#484747" stroke-width="2">
      <ellipse cx="1.456" cy="2.548" rx="1.456" ry="2.548" stroke="none"/>
      <ellipse cx="1.456" cy="2.548" rx="0.456" ry="1.548" fill="none"/>
    </g>
    <g id="Ellipse_39" data-name="Ellipse 39" transform="translate(27.331 35.234) rotate(-14)" fill="#dea42b" stroke="#484747" stroke-width="2">
      <ellipse cx="1.456" cy="1.82" rx="1.456" ry="1.82" stroke="none"/>
      <ellipse cx="1.456" cy="1.82" rx="0.456" ry="0.82" fill="none"/>
    </g>
    <g id="Ellipse_36" data-name="Ellipse 36" transform="translate(10.901 13.69) rotate(101)" fill="#dea42b" stroke="#484747" stroke-width="2">
      <ellipse cx="1.092" cy="2.184" rx="1.092" ry="2.184" stroke="none"/>
      <ellipse cx="1.092" cy="2.184" rx="0.092" ry="1.184" fill="none"/>
    </g>
    <g id="Ellipse_37" data-name="Ellipse 37" transform="translate(22.496 1.869) rotate(101)" fill="#dea42b" stroke="#484747" stroke-width="2">
      <ellipse cx="1.092" cy="3.64" rx="1.092" ry="3.64" stroke="none"/>
      <ellipse cx="1.092" cy="3.64" rx="0.092" ry="2.64" fill="none"/>
    </g>
    <g id="Ellipse_38" data-name="Ellipse 38" transform="translate(34.967 31.675) rotate(-174)" fill="#dea42b" stroke="#484747" stroke-width="2">
      <ellipse cx="0.798" cy="2.66" rx="0.798" ry="2.66" stroke="none"/>
      <ellipse cx="0.798" cy="2.66" rx="0.202" ry="1.66" fill="none"/>
    </g>
    <path id="Tracé_8" data-name="Tracé 8" d="M13415.307,10611.319c.412-.369,3.424-.455,4.067-.472s.489.665.489.665-1.492.907-2.466.541S13414.9,10611.691,13415.307,10611.319Z" transform="translate(-13408.271 -10588.529)" fill="#dea42b" stroke="#484747" stroke-width="2"/>
    <path id="Tracé_9" data-name="Tracé 9" d="M.068.475C.476.1,3.491.017,4.132,0s.493.666.493.666-1.494.908-2.464.542S-.341.846.068.475Z" transform="matrix(0.998, -0.07, 0.07, 0.998, 23.673, 10.834)" fill="#dea42b" stroke="#484747" stroke-width="2"/>
    <path id="Tracé_10" data-name="Tracé 10" d="M.087.475C.613.1,4.494.017,5.318,0s.634.666.634.666a5.71,5.71,0,0,1-3.17.542C1.534.842-.439.846.087.475Z" transform="matrix(0.921, -0.391, 0.391, 0.921, 17.091, 48.757)" fill="#dea42b" stroke="#484747" stroke-width="2"/>
    <path id="Tracé_11" data-name="Tracé 11" d="M.087.475C.613.1,4.494.017,5.318,0s.634.666.634.666a5.71,5.71,0,0,1-3.17.542C1.534.842-.439.846.087.475Z" transform="translate(5.564 49.347) rotate(42)" fill="#dea42b" stroke="#484747" stroke-width="2"/>
  </g>
</svg>
