<svg xmlns="http://www.w3.org/2000/svg" width="57.816" height="59.244" viewBox="0 0 57.816 59.244">
  <g id="Groupe_28" data-name="Groupe 28" transform="translate(-21.186 -271.521)">
    <path id="Tracé_12" data-name="Tracé 12" d="M13356.707,10739.794s4.2-1.4,6.344-1.263a74.891,74.891,0,0,1,8.681,1.963s3.673,1.4,5.042,3.415,4.68,3.172,9.2,4.82,10.185,6.49,11.261,11.469,6.644,15.579,6.644,15.579,1.981,1.214.441,5-2.249,8.1-4.3,9.167-7.1,8.538-15.2,4.944-9.876-4.221-13.835-7.366-7.29-8.211-9.615-9.248-5.248-5.527-5.846-6.978-4.446-2.657-4.85-5.321-2.507-10.646-1.023-14.763,2.237-7.081,3.429-8.288S13356.707,10739.794,13356.707,10739.794Z" transform="translate(-13327.001 -10466)" fill="#dea404" stroke="#707070" stroke-width="2"/>
    <path id="Tracé_13" data-name="Tracé 13" d="M13377.586,10754.184s1.559-3.577,2.934-3.174,3,3.475,2.113,3.619" transform="translate(-13335.916 -10469.902)" fill="#dea404" stroke="#707070" stroke-width="2"/>
    <path id="Tracé_14" data-name="Tracé 14" d="M13378.406,10757.645s2.907,2.749,3.774.556" transform="translate(-13336.173 -10471.991)" fill="#dea404" stroke="#707070" stroke-width="2"/>
    <path id="Tracé_15" data-name="Tracé 15" d="M13401.766,10768.709s1.627-2.795,3.061-2.482,1.365,3.652,1.365,3.652" transform="translate(-13343.491 -10474.673)" fill="#dea404" stroke="#707070" stroke-width="2"/>
    <path id="Tracé_16" data-name="Tracé 16" d="M13401.766,10771.557s2.561,3.229,4.043,1.228" transform="translate(-13343.491 -10476.351)" fill="#dea404" stroke="#707070" stroke-width="2"/>
    <path id="Tracé_17" data-name="Tracé 17" d="M13401.131,10803.722s3.422-2.431,4.477-1.117,1.461,3.2.727,4.09" transform="translate(-13343.293 -10485.956)" fill="#dea404" stroke="#707070" stroke-width="2"/>
    <path id="Tracé_18" data-name="Tracé 18" d="M13401.116,10807s-.579,3.644,3.267,2.556" transform="translate(-13343.278 -10487.455)" fill="#dea404" stroke="#707070" stroke-width="2"/>
    <path id="Tracé_19" data-name="Tracé 19" d="M13371.054,10789.522s2.447-1.338,3.884-.468-.5,3.665-.5,3.665" transform="translate(-13333.869 -10481.74)" fill="#dea404" stroke="#707070" stroke-width="2"/>
    <path id="Tracé_20" data-name="Tracé 20" d="M13371.054,10791.644s.732,3.595,2.259,2.847" transform="translate(-13333.869 -10482.644)" fill="#dea404" stroke="#707070" stroke-width="2"/>
    <path id="Tracé_21" data-name="Tracé 21" d="M13352.827,10767.9s-1.479-.769-2.084,0a3.269,3.269,0,0,0-.605,1.807" transform="translate(-13327.315 -10475.099)" fill="#dea404" stroke="#707070" stroke-width="2"/>
    <path id="Tracé_22" data-name="Tracé 22" d="M13353.873,10768.153l.368,1.1s-.515,2.25-.96,2.25-2.938-.624-2.938-.624" transform="translate(-13327.38 -10475.284)" fill="#dea404" stroke="#707070" stroke-width="2"/>
  </g>
</svg>
